# xmcd
#
# Track frame offsets: 
#        150
#        6416
#        15569
#        17609
#        22938
#        33542
#        50916
#        62339
#        68826
#        76689
#        91021
#        100586
#        101380
#        110751
#        118448
#        123632
#        136762
#        150196
#        158314
#        182868
#        191339
#        200577
#        204256
#        220665
#        225686
#
# Disc length: 3344 seconds
#
# Revision: 0
# Processed by: cddbd v1.5.2PL0 Copyright (c) Steve Scherf et al.
# Submitted via: ExactAudioCopy v1.0b3
#
DISCID=370d0e19
DTITLE=Onkel Kånkel - Kalle Anka suger pung
DYEAR=1990
DGENRE=Punk
TTITLE0=Spetälske Leffe
TTITLE1=Shit on the pitt
TTITLE2=Tjockfet
TTITLE3=Letar efter CP'n
TTITLE4=Martin Ljungs förhud
TTITLE5=Greven and James
TTITLE6=Sug min rock'n'roll penis
TTITLE7=I Istanbul
TTITLE8=Svenne Hängpung
TTITLE9=Tio små stjärtgossar
TTITLE10=Svarte Stjärter and Sluske Pitt
TTITLE11=Bostadsbrist
TTITLE12=Här kommer det en stjärtis
TTITLE13=CP-barn från Afghanistan
TTITLE14=La Paloma
TTITLE15=Knullgubben Allan
TTITLE16=Jag vill se dig kräkas
TTITLE17=Schnitzel Fritz
TTITLE18=Aids Dancing
TTITLE19=Runes hund
TTITLE20=Blinka lilla stjärtis
TTITLE21=Runkner
TTITLE22=Hawaii-skjorta
TTITLE23=Stjärtis on the Run
TTITLE24=Börja knarka, börja böga
EXTD=
EXTT0=
EXTT1=
EXTT2=
EXTT3=
EXTT4=
EXTT5=
EXTT6=
EXTT7=
EXTT8=
EXTT9=
EXTT10=
EXTT11=
EXTT12=
EXTT13=
EXTT14=
EXTT15=
EXTT16=
EXTT17=
EXTT18=
EXTT19=
EXTT20=
EXTT21=
EXTT22=
EXTT23=
EXTT24=
PLAYORDER=
